<?xml version="1.0" encoding="UTF-8"?>
<!-- Created with Inkscape (http://www.inkscape.org/) -->
<svg width="246.04" height="274.81" version="1.1" viewBox="0 0 65.097 72.711" xmlns="http://www.w3.org/2000/svg">
 <g transform="translate(-16.79 -23.539)">
  <path transform="scale(.26458)" d="m186.48 88.967a30 30 0 0 0-30 30 30 30 0 0 0 0.52539 5.4707l-44.051 25.432a30 30 0 0 0-19.492-7.1992 30 30 0 0 0-30 30 30 30 0 0 0 20 28.262v50.883a30 30 0 0 0-20 28.264 30 30 0 0 0 30 30 30 30 0 0 0 19.477-7.209l44.066 25.441a30 30 0 0 0-0.52539 5.4707 30 30 0 0 0 30 30 30 30 0 0 0 30-30 30 30 0 0 0-0.50586-5.4805l44.047-25.432a30 30 0 0 0 19.477 7.209 30 30 0 0 0 30-30 30 30 0 0 0-20-28.283v-50.863a30 30 0 0 0 20-28.262 30 30 0 0 0-30-30 30 30 0 0 0-19.477 7.209l-44.064-25.441a30 30 0 0 0 0.52344-5.4707 30 30 0 0 0-30-30zm-19.477 52.791a30 30 0 0 0 19.477 7.209 30 30 0 0 0 19.477-7.209l44.066 25.441a30 30 0 0 0-0.52539 5.4707 30 30 0 0 0 20 28.262v50.883a30 30 0 0 0-20 28.264 30 30 0 0 0 0.52539 5.4707l-44.049 25.432a30 30 0 0 0-19.494-7.1992 30 30 0 0 0-19.477 7.209l-44.064-25.441a30 30 0 0 0 0.52343-5.4707 30 30 0 0 0-20-28.285v-50.861a30 30 0 0 0 20-28.262 30 30 0 0 0-0.50586-5.4805z" color="#000000" fill="#fff" fill-rule="evenodd" stroke-width=".42964" style="-inkscape-stroke:none"/>
 </g>
</svg>
